<?xml version="1.0" standalone="no"?>
<!DOCTYPE svg PUBLIC "-//W3C//DTD SVG 20010904//EN"
 "http://www.w3.org/TR/2001/REC-SVG-20010904/DTD/svg10.dtd">
<svg version="1.0" xmlns="http://www.w3.org/2000/svg"
 width="523.000000pt" height="960.000000pt" viewBox="0 0 523.000000 960.000000"
 preserveAspectRatio="xMidYMid meet">
<metadata>
Created by potrace 1.15, written by Peter Selinger 2001-2017
</metadata>
<g transform="translate(0.000000,960.000000) scale(0.100000,-0.100000)"
fill="#000000" stroke="none">
<path d="M4235 9386 c-120 -30 -254 -136 -309 -244 -127 -252 -31 -555 215
-676 l76 -38 139 4 c130 3 143 5 199 32 71 35 172 132 205 196 45 89 60 149
60 246 0 156 -46 262 -160 368 -117 108 -274 149 -425 112z m290 -84 c33 -17
69 -38 79 -47 19 -15 19 -15 -5 -42 -90 -101 -139 -155 -187 -206 l-54 -57
-36 31 c-83 71 -252 243 -249 253 6 18 97 75 146 91 32 10 77 14 146 12 89 -3
107 -7 160 -35z m217 -232 c19 -45 23 -75 23 -166 0 -108 -1 -112 -38 -188
-21 -42 -42 -76 -46 -74 -5 2 -67 59 -139 128 l-131 125 131 144 132 144 23
-29 c13 -16 33 -54 45 -84z m-574 -39 l141 -134 -59 -66 c-32 -36 -92 -102
-133 -146 -73 -78 -75 -80 -94 -62 -28 24 -82 134 -90 180 l-6 37 111 0 c61 0
117 3 126 6 21 8 21 60 0 68 -9 3 -67 6 -130 6 -128 0 -121 -5 -103 82 13 63
67 170 84 166 7 -2 75 -63 153 -137z m336 -316 c129 -124 130 -124 111 -145
-10 -11 -52 -37 -93 -58 -71 -35 -80 -37 -171 -36 -100 0 -176 21 -229 62
l-23 18 128 141 c70 78 133 142 138 142 6 0 68 -56 139 -124z"/>
<path d="M610 9371 c0 -7 36 -72 198 -353 24 -43 47 -78 51 -78 6 0 234 391
246 423 7 16 -9 17 -244 17 -138 0 -251 -4 -251 -9z"/>
<path d="M440 9168 c-57 -101 -114 -199 -127 -218 -13 -19 -23 -38 -23 -42 0
-4 80 -9 178 -10 l177 -3 0 -25 0 -25 -177 -3 c-98 -1 -178 -4 -178 -6 0 -2
23 -43 52 -92 28 -49 83 -145 122 -213 39 -69 76 -126 81 -128 9 -3 266 432
273 462 3 11 -246 455 -267 478 -4 4 -54 -75 -111 -175z"/>
<path d="M1031 9111 c-72 -125 -131 -234 -131 -240 0 -10 70 -134 249 -443 9
-16 18 -28 21 -28 5 0 260 440 269 462 4 12 -5 30 -105 203 -44 77 -98 170
-119 208 -22 37 -42 67 -46 67 -3 0 -65 -103 -138 -229z"/>
<path d="M2379 9336 c-3 -3 -44 -6 -92 -7 -48 -2 -91 -5 -96 -8 -16 -11 -124
-260 -117 -273 3 -7 120 -168 259 -358 176 -239 260 -346 275 -348 25 -4 24
-6 207 314 76 131 162 281 191 332 69 119 71 148 12 267 l-42 85 -144 0 c-150
0 -182 -7 -182 -41 0 -24 -47 -119 -59 -119 -5 0 -32 36 -61 80 l-53 80 -47 0
c-25 0 -49 -2 -51 -4z m586 -137 l36 -71 -67 -121 c-91 -166 -103 -182 -119
-165 -7 7 -49 68 -94 135 l-82 121 40 80 c46 91 36 86 188 90 l63 2 35 -71z
m-466 -23 l54 -79 -84 -168 c-46 -93 -87 -168 -91 -167 -10 4 -188 250 -188
260 0 4 33 8 73 9 39 1 83 4 97 8 29 8 38 35 19 57 -10 13 -29 14 -112 8 -84
-6 -99 -4 -95 7 3 8 18 42 33 76 31 70 33 71 170 69 l70 -1 54 -79z m279 -430
c-5 -21 -162 -296 -170 -296 -5 0 -148 189 -171 227 -7 11 92 222 145 311 l20
33 90 -131 c49 -72 88 -136 86 -144z"/>
<path d="M847 8793 c-2 -5 -57 -100 -122 -213 -65 -113 -120 -208 -122 -212
-2 -5 111 -8 251 -8 156 0 256 4 256 10 0 5 -37 73 -83 152 -46 79 -101 173
-122 211 -38 64 -49 76 -58 60z"/>
<path d="M4093 8226 c-18 -14 -21 -25 -20 -78 l2 -63 140 -2 c77 0 147 3 156
8 9 4 19 22 22 39 9 42 25 38 29 -7 l3 -38 81 -3 c102 -3 114 6 114 83 0 44
-4 56 -20 65 -27 14 -175 7 -195 -10 -12 -10 -18 -9 -31 5 -14 13 -29 16 -73
11 -70 -7 -75 -7 -136 0 -36 4 -56 1 -72 -10z m277 -25 c29 -54 -5 -111 -65
-111 -61 0 -88 44 -65 104 9 24 15 26 64 26 44 0 57 -4 66 -19z"/>
<path d="M626 8217 c-27 -20 -34 -133 -8 -141 29 -9 266 -4 284 5 9 5 19 22
23 39 9 41 23 38 27 -7 l3 -38 95 0 94 0 3 68 c3 64 2 68 -23 77 -32 13 -153
7 -182 -9 -19 -10 -25 -9 -39 4 -13 13 -28 15 -72 11 -70 -7 -75 -7 -136 0
-35 4 -56 1 -69 -9z m272 -19 c14 -14 16 -76 4 -96 -12 -18 -72 -26 -104 -13
-25 9 -28 15 -28 59 0 27 3 52 7 55 11 12 108 8 121 -5z"/>
<path d="M2337 8207 c-7 -12 -13 -44 -13 -72 l1 -50 147 -2 c156 -3 178 3 178
47 0 10 5 22 10 25 6 4 10 -6 10 -22 0 -46 9 -51 102 -52 76 -1 88 1 97 17 14
27 8 112 -10 123 -23 15 -186 9 -200 -7 -9 -11 -13 -11 -25 1 -11 10 -46 14
-149 14 -129 0 -136 -1 -148 -22z m274 3 c14 -8 19 -21 19 -53 0 -55 -13 -67
-70 -67 -25 0 -51 5 -58 12 -19 19 -15 95 6 107 22 14 78 14 103 1z"/>
<path d="M580 7772 l-22 -18 20 -40 c11 -21 63 -113 116 -204 l96 -165 -231
-5 c-207 -4 -233 -7 -243 -22 -8 -13 -8 -23 0 -35 10 -16 35 -18 238 -21 149
-1 226 -6 226 -13 0 -6 -50 -96 -110 -200 -93 -159 -109 -193 -100 -209 6 -11
21 -20 34 -20 26 0 43 25 187 277 35 62 67 113 70 113 5 0 76 -119 206 -347
30 -52 46 -58 77 -30 17 16 213 345 273 459 4 7 -25 59 -170 314 -92 160 -114
188 -141 178 -9 -3 -36 -41 -60 -83 -130 -229 -179 -311 -185 -311 -3 0 -24
33 -47 73 -128 227 -178 309 -194 317 -13 7 -24 5 -40 -8z m648 -293 l102
-180 -91 -157 c-50 -86 -98 -167 -106 -180 -16 -27 -9 -37 -158 222 -62 107
-67 120 -55 140 8 11 28 46 45 76 18 30 59 101 91 157 32 57 61 103 64 103 3
0 51 -82 108 -181z"/>
<path d="M2238 7628 c-48 -84 -101 -177 -118 -205 l-30 -53 73 0 74 0 79 138
80 137 199 0 200 0 98 -171 98 -172 -98 -171 -98 -171 -201 0 -200 0 -80 140
c-43 77 -85 140 -91 140 -7 0 -13 -2 -13 -5 0 -3 39 -73 86 -155 l86 -150 213
0 213 0 107 186 106 186 -104 181 -105 182 -217 0 -218 0 -77 -135 -78 -135
-41 -3 c-23 -2 -41 1 -41 6 0 5 44 85 98 178 l98 169 260 2 259 2 128 -223
127 -224 -129 -223 -129 -224 -257 0 -258 0 -128 224 c-71 123 -126 227 -123
232 3 5 47 9 98 9 l93 0 83 -145 83 -145 146 0 c80 0 151 4 157 8 9 6 66 102
132 222 l24 45 -75 130 -75 130 -155 3 -156 3 -55 -95 c-31 -52 -56 -97 -56
-100 0 -3 33 -6 73 -6 l73 0 17 35 17 35 84 0 84 0 36 -64 c20 -35 36 -70 35
-78 0 -7 -17 -40 -37 -73 l-37 -60 -80 -3 -80 -2 -23 40 c-12 22 -27 40 -32
40 -15 0 -12 -11 12 -57 l23 -43 100 0 100 0 43 77 c23 42 42 81 41 87 0 6
-19 45 -43 86 l-44 75 -94 3 -94 3 -25 -38 c-17 -27 -32 -39 -52 -41 -58 -7
-60 2 -14 80 l43 73 139 0 140 0 67 -115 c37 -63 66 -122 65 -130 -1 -8 -31
-66 -67 -127 l-65 -113 -140 0 -141 0 -71 124 c-39 69 -68 127 -65 130 3 3 45
6 94 6 l89 0 20 35 c20 33 24 35 75 35 52 0 54 -1 74 -40 26 -50 25 -58 -5
-103 -24 -34 -30 -37 -73 -37 -44 0 -48 2 -70 40 l-23 40 -69 0 c-39 0 -70 -3
-70 -6 0 -11 103 -189 114 -196 13 -9 229 -9 243 0 11 8 123 204 123 216 0 4
-27 54 -61 112 l-61 104 -123 0 -123 0 -26 -44 c-29 -49 -31 -56 -16 -56 6 0
20 16 31 35 l21 35 113 0 113 0 51 -90 c28 -49 51 -93 51 -97 0 -3 -24 -48
-52 -100 l-53 -93 -111 0 -110 0 -41 73 -40 72 31 6 c41 7 60 -4 76 -41 12
-29 14 -30 81 -30 l69 0 30 48 c16 26 30 53 30 61 0 7 -14 38 -31 67 l-30 54
-63 0 c-63 0 -64 0 -90 -40 l-26 -40 -95 0 c-70 0 -95 3 -94 13 0 6 30 64 67
127 l68 115 169 0 169 0 64 -110 c35 -60 73 -126 84 -146 l21 -37 -84 -146
-83 -146 -171 0 -171 0 -79 140 -80 140 -73 0 c-41 0 -72 -4 -70 -8 2 -4 54
-96 116 -205 l113 -197 244 0 243 0 121 211 121 210 -115 201 c-63 110 -120
207 -126 215 -17 20 -472 18 -489 -2 -6 -7 -42 -67 -79 -132 -98 -171 -94
-163 -77 -163 8 0 48 61 93 140 l78 140 230 -3 230 -2 112 -196 113 -196 -112
-197 -112 -196 -231 0 -230 0 -98 169 c-53 93 -97 173 -97 178 0 8 79 9 84 1
1 -2 37 -65 80 -140 l78 -138 182 0 c162 0 182 2 192 18 6 9 48 81 93 160 l83
143 -90 157 -89 157 -188 0 -187 0 -78 -135 -78 -135 -89 -3 c-129 -4 -130
-10 -46 -154 36 -62 97 -168 135 -235 l69 -123 273 0 273 0 131 228 c72 125
132 232 134 238 2 7 -58 118 -132 248 l-135 236 -270 0 -270 0 -87 -152z"/>
<path d="M4117 7738 c-14 -18 -86 -126 -162 -240 l-138 -207 158 -236 157
-235 235 2 235 3 154 228 c85 125 154 233 154 240 -1 6 -71 116 -158 242
l-157 230 -227 3 -227 2 -24 -32z m453 -4 c0 -8 -202 -315 -206 -312 -8 9
-204 308 -204 313 0 3 92 5 205 5 113 0 205 -3 205 -6z m-323 -185 c112 -167
106 -147 58 -221 l-17 -28 -207 0 c-114 0 -210 3 -214 6 -8 9 256 404 268 400
6 -1 56 -72 112 -157z m493 -41 c74 -111 135 -209 134 -218 0 -17 -265 -419
-276 -420 -3 0 -55 72 -113 160 l-107 160 37 51 36 51 -34 53 -35 52 101 156
c56 85 107 156 112 156 6 0 71 -91 145 -201z m-425 -270 c16 -24 28 -47 28
-53 0 -11 -200 -315 -208 -315 -5 0 -239 344 -263 387 l-13 23 214 0 214 0 28
-42z m154 -231 c51 -76 95 -145 98 -153 5 -13 -22 -15 -196 -14 -110 1 -203 5
-205 9 -7 11 196 313 204 304 4 -4 49 -70 99 -146z"/>
<path d="M4120 6701 c-5 -11 -10 -45 -10 -76 l0 -56 88 1 c48 0 105 -2 127 -6
56 -8 94 9 101 46 9 43 34 39 34 -5 0 -34 1 -35 43 -37 138 -4 164 7 153 66
-3 16 -6 41 -6 57 l0 29 -92 0 c-70 0 -96 -4 -109 -16 -17 -15 -19 -15 -34 0
-19 18 -105 22 -135 6 -13 -7 -21 -7 -25 0 -3 5 -33 10 -65 10 -48 0 -61 -4
-70 -19z m281 -12 c17 -17 20 -29 15 -57 -3 -19 -10 -40 -15 -45 -15 -15 -97
-13 -115 2 -16 14 -22 77 -8 97 20 30 94 32 123 3z"/>
<path d="M660 6698 c-23 -12 -25 -19 -25 -78 l0 -65 135 -2 c150 -1 180 7 180
53 0 37 24 25 30 -16 l5 -33 74 -4 c99 -5 121 9 121 76 0 68 -13 77 -118 74
-47 -2 -90 -7 -97 -13 -8 -7 -22 -5 -44 6 -22 11 -45 14 -74 10 -56 -8 -64 -8
-117 -1 -29 4 -54 1 -70 -7z m264 -24 c9 -8 16 -31 16 -49 0 -46 -22 -65 -75
-65 -52 0 -75 19 -75 61 0 54 15 69 70 69 31 0 54 -6 64 -16z"/>
<path d="M2368 6690 c-14 -9 -18 -25 -18 -76 l0 -64 118 2 c64 1 101 4 82 7
l-35 6 0 55 0 55 38 9 c23 6 48 6 65 0 23 -8 27 -16 30 -52 4 -47 -10 -72 -39
-72 -11 0 -19 -4 -19 -10 0 -12 0 -12 38 1 25 8 33 18 38 45 8 45 22 43 26 -3
2 -31 7 -39 26 -41 12 -2 22 1 22 7 0 14 87 15 95 1 11 -18 41 -10 55 15 9 17
10 28 2 37 -6 7 -12 29 -14 48 -4 48 -29 50 -83 6 -24 -20 -46 -36 -49 -36 -3
0 -6 14 -6 30 0 37 -21 48 -53 27 -20 -13 -25 -13 -42 0 -14 10 -36 13 -75 9
-67 -6 -62 -6 -130 0 -30 2 -63 -1 -72 -6z"/>
<path d="M770 6254 c-101 -44 -155 -160 -127 -272 l9 -33 -39 7 c-104 21 -189
-11 -246 -93 -35 -48 -47 -146 -27 -207 36 -109 156 -170 279 -142 31 7 33 6
26 -10 -30 -74 -12 -162 45 -227 53 -59 108 -81 194 -75 86 5 139 41 179 118
24 46 28 64 24 110 -3 30 -8 66 -13 79 -7 22 -6 23 17 10 34 -18 137 -16 176
4 158 83 175 305 31 403 -40 27 -50 29 -135 29 -86 0 -91 1 -81 19 6 10 8 49
6 87 -3 56 -9 76 -33 111 -60 84 -192 123 -285 82z m185 -23 c44 -19 91 -69
107 -110 16 -44 11 -126 -11 -167 -11 -22 -57 -76 -103 -122 l-84 -82 -90 92
c-50 51 -97 104 -104 118 -8 14 -14 52 -14 86 -2 118 84 204 203 204 33 0 73
-8 96 -19z m-347 -293 c37 -9 63 -28 134 -96 48 -47 88 -88 88 -92 0 -4 -57
-7 -127 -7 -76 0 -126 -3 -123 -9 3 -5 60 -9 128 -9 67 0 122 -2 122 -5 0 -13
-159 -160 -190 -176 -90 -45 -214 -7 -266 82 -66 113 -7 270 117 309 56 17 60
17 117 3z m662 -18 c125 -64 148 -229 47 -334 -69 -72 -164 -84 -252 -31 -22
13 -73 58 -114 100 l-75 76 96 96 c80 80 104 98 144 109 56 15 102 10 154 -16z
m-224 -402 c46 -91 22 -197 -59 -262 -33 -27 -48 -31 -110 -34 -61 -3 -79 0
-117 21 -59 31 -99 88 -106 153 -10 83 7 117 114 227 l96 97 79 -77 c43 -43
89 -99 103 -125z"/>
<path d="M4438 5682 c-15 -16 -13 -20 35 -69 65 -65 125 -182 173 -337 10 -32
34 -47 34 -22 0 12 10 16 35 16 23 0 35 5 35 14 0 16 -43 27 -61 15 -9 -5 -23
15 -46 69 -19 42 -39 86 -45 97 -7 11 -30 56 -53 100 -47 91 -74 135 -84 134
-3 0 -13 -8 -23 -17z"/>
<path d="M4126 5107 c-14 -10 -16 -25 -14 -77 l3 -65 131 -2 c148 -1 177 7
182 50 4 35 27 30 27 -6 1 -14 4 -29 8 -33 4 -4 39 -9 78 -11 54 -3 77 0 96
12 23 15 24 21 18 68 -4 29 -14 58 -23 64 -22 18 -162 14 -184 -5 -15 -13 -19
-12 -33 2 -19 18 -105 22 -135 6 -13 -7 -21 -7 -25 0 -9 14 -108 12 -129 -3z
m282 -25 c16 -21 15 -63 -1 -86 -16 -22 -98 -26 -122 -6 -24 20 -16 91 12 105
29 15 95 7 111 -13z"/>
<path d="M652 5098 c-5 -7 -10 -41 -11 -75 l-1 -62 144 0 c78 1 148 4 155 8 6
4 15 21 20 37 10 38 25 33 29 -9 l3 -34 84 -2 c104 -2 119 9 109 78 -4 25 -11
52 -17 59 -12 15 -161 15 -191 0 -12 -7 -22 -6 -29 1 -14 14 -130 14 -144 0
-8 -8 -13 -8 -17 0 -10 15 -121 14 -134 -1z m283 -15 c20 -19 15 -90 -7 -104
-22 -15 -95 -10 -112 7 -21 20 -21 78 0 98 21 22 97 21 119 -1z"/>
<path d="M2341 5092 c-5 -9 -9 -43 -10 -74 l-1 -57 149 0 c158 0 166 3 173 48
5 41 26 36 30 -6 l3 -38 83 -3 c55 -2 89 1 98 9 19 16 13 117 -7 130 -19 12
-170 8 -191 -5 -11 -7 -20 -6 -30 1 -8 7 -65 11 -151 11 -118 0 -138 -2 -146
-16z m283 -8 c9 -8 16 -31 16 -49 0 -44 -22 -65 -70 -65 -64 0 -70 6 -70 65 0
33 5 55 13 58 28 12 96 6 111 -9z"/>
<path d="M4562 4503 c-58 -95 -119 -203 -172 -308 l-25 -50 -300 -5 -300 -5
295 -4 c162 -2 298 -3 302 -2 3 0 31 -43 61 -97 77 -135 197 -337 197 -330 0
12 -32 81 -59 126 -57 96 -92 164 -82 161 5 -2 56 -49 113 -104 122 -118 169
-158 123 -105 -16 18 -34 39 -40 46 -5 6 -59 62 -119 123 -60 61 -107 113
-104 116 3 3 28 -7 55 -23 49 -29 292 -152 326 -165 60 -23 -62 51 -228 138
-60 31 -114 61 -119 66 -21 19 3 17 77 -6 84 -27 327 -79 334 -72 6 6 -106 39
-264 78 -73 18 -133 36 -133 40 0 4 53 5 118 3 64 -3 162 -1 217 4 97 9 94 9
-92 11 -105 0 -194 5 -197 9 -3 5 40 17 96 26 55 10 119 24 142 32 l41 14 -40
-6 c-22 -3 -83 -12 -135 -20 -186 -28 -184 -28 -176 -16 4 6 24 16 45 22 53
14 148 56 156 69 12 21 -26 11 -103 -26 -78 -37 -112 -48 -112 -36 0 8 52 55
100 92 51 38 60 48 52 56 -4 5 2 5 13 1 16 -6 17 -5 8 5 -12 12 -66 -26 -158
-113 -47 -45 -65 -49 -40 -10 10 15 25 37 32 49 8 12 16 29 17 38 1 9 8 20 15
25 8 4 10 13 6 20 -5 8 -4 11 1 7 5 -3 23 22 39 56 16 34 42 84 58 111 52 90
20 58 -41 -41z"/>
<path d="M760 4578 c-45 -12 -58 -25 -36 -34 14 -5 11 -11 -18 -31 -20 -13
-38 -34 -42 -47 -4 -18 -11 -22 -29 -18 -21 3 -23 1 -18 -19 7 -28 51 -79 69
-79 6 0 17 6 23 14 9 11 19 11 63 0 29 -8 63 -14 75 -14 18 0 23 -6 23 -26 0
-25 2 -26 38 -19 65 11 142 36 142 45 0 5 -9 12 -20 15 -19 6 -19 8 10 35 16
15 30 33 30 39 0 6 9 11 20 11 40 0 17 56 -37 91 -24 16 -29 16 -43 4 -13 -11
-24 -12 -51 -5 -18 6 -49 10 -66 10 -26 0 -33 4 -33 20 0 16 -6 20 -32 19 -18
0 -49 -5 -68 -11z"/>
<path d="M4155 3553 c-11 -3 -26 -10 -32 -15 -15 -12 -18 -124 -3 -133 6 -4 7
5 4 23 -7 36 4 45 66 52 31 3 45 10 45 20 0 22 -75 27 -87 6 -11 -20 -28 -21
-28 -1 0 20 32 35 77 35 49 0 66 -11 61 -40 -4 -27 -19 -37 -70 -45 -58 -9
-45 -25 19 -25 73 0 59 -18 -17 -22 -30 -2 4 -4 75 -5 141 -1 165 6 165 54 0
14 6 23 15 23 10 0 15 -10 15 -34 0 -71 43 -54 44 16 1 42 2 43 39 46 20 2 37
0 37 -4 0 -5 -14 -23 -31 -40 -32 -33 -34 -64 -5 -64 20 0 106 107 106 131 0
17 -8 19 -98 19 -54 0 -103 -5 -108 -10 -7 -7 -20 -6 -40 5 -19 10 -42 13 -69
8 -52 -8 -82 -8 -125 -1 -19 4 -44 4 -55 1z m243 -22 c23 -12 27 -67 7 -97
-12 -19 -24 -24 -60 -24 -26 0 -50 6 -59 16 -22 22 -21 90 2 103 21 13 88 14
110 2z"/>
<path d="M620 3538 c-20 -11 -26 -23 -30 -66 -9 -82 -9 -81 148 -81 149 1 172
8 172 56 0 37 24 23 30 -17 l5 -34 76 -4 c61 -2 80 0 98 15 20 16 21 23 14 68
-11 65 -33 77 -128 69 -38 -4 -75 -10 -81 -15 -7 -5 -24 -2 -43 7 -22 11 -45
14 -74 10 -52 -8 -71 -8 -122 -1 -24 3 -50 0 -65 -7z m265 -25 c12 -12 15 -26
12 -51 -8 -48 -24 -62 -69 -62 -61 0 -78 14 -78 63 0 24 5 48 12 55 18 18 103
15 123 -5z"/>
<path d="M2372 3522 c-12 -12 -17 -33 -17 -72 l0 -55 110 -1 c61 0 99 2 85 5
-28 8 -39 40 -30 86 5 28 9 30 59 33 64 4 81 -8 81 -59 0 -28 -6 -42 -22 -53
-16 -11 -18 -16 -7 -16 22 0 39 21 39 47 0 37 28 28 32 -9 3 -32 5 -33 48 -34
35 -2 40 0 23 7 -19 7 -23 16 -23 52 0 56 15 69 77 65 39 -2 48 -7 51 -23 3
-16 1 -18 -9 -7 -18 16 -99 16 -99 -1 0 -9 12 -11 38 -9 49 5 93 -27 76 -55
-6 -9 -22 -21 -35 -24 l-24 -7 26 -1 c36 -1 49 18 47 69 -2 68 -23 82 -118 77
-43 -2 -85 -8 -92 -14 -10 -8 -18 -8 -32 3 -23 17 -99 19 -128 3 -14 -8 -23
-8 -31 0 -18 18 -105 13 -125 -7z"/>
<path d="M1134 3052 c-49 -63 -176 -249 -229 -337 -46 -76 -61 -93 -71 -84 -8
6 -12 15 -9 19 6 9 -22 92 -34 100 -4 3 -31 41 -59 85 -43 67 -182 223 -182
203 0 -13 194 -361 227 -406 l16 -23 -194 1 c-159 2 -201 -1 -231 -14 -21 -9
-54 -16 -73 -16 -22 0 -34 -4 -30 -10 4 -6 105 -10 271 -10 145 0 264 -3 264
-6 0 -3 -26 -45 -58 -92 -67 -99 -216 -352 -210 -357 1 -2 40 31 85 73 98 93
176 201 212 295 8 20 17 37 20 37 3 0 19 -23 35 -51 42 -75 286 -370 286 -346
0 3 -40 90 -90 192 l-89 186 47 -39 c58 -48 119 -87 152 -96 21 -6 22 -5 7 4
-30 19 -8 31 24 14 32 -16 57 -10 27 7 -10 6 -38 27 -62 48 -24 21 -61 49 -82
62 l-39 24 60 11 c51 10 55 12 25 14 -19 1 -41 2 -47 1 -7 -1 -13 5 -13 12 0
8 -10 17 -22 21 -29 7 -14 23 30 32 25 5 32 3 32 -9 0 -15 20 -27 47 -27 11 0
10 4 -6 18 -12 9 -18 22 -13 28 7 12 109 64 124 64 5 0 25 11 44 24 31 21 33
25 17 32 -19 8 -28 11 -53 13 -9 1 9 24 45 57 55 50 57 54 30 48 -54 -12 -128
-45 -173 -75 -25 -17 -47 -28 -49 -25 -6 6 78 127 121 175 28 31 25 30 -29
-11 -78 -60 -113 -97 -171 -187 -27 -40 -53 -79 -58 -86 -6 -9 -4 -18 7 -30
19 -19 22 -41 7 -50 -8 -5 -7 -11 1 -21 19 -23 -54 -18 -75 5 -21 23 -14 41
15 41 10 0 19 5 19 11 0 6 -7 9 -15 5 -23 -8 -18 11 14 57 54 80 140 272 176
395 8 28 5 27 -21 -6z"/>
<path d="M2880 3014 c0 -10 -6 -14 -14 -11 -11 4 -13 1 -9 -10 5 -12 1 -14
-16 -8 -17 5 -30 0 -53 -22 -47 -44 -105 -138 -118 -193 -15 -64 -8 -84 15
-40 10 19 21 37 24 40 3 3 17 22 31 42 14 21 28 38 33 38 16 0 5 -23 -38 -76
-41 -50 -61 -84 -33 -56 7 7 18 12 26 12 10 0 8 -8 -7 -29 -12 -16 -21 -35
-21 -43 0 -7 12 7 25 31 14 24 43 65 65 91 22 26 40 53 40 59 0 7 7 22 15 35
20 30 55 156 44 156 -5 0 -9 -7 -9 -16z"/>
<path d="M2280 3008 c0 -33 31 -124 53 -157 30 -43 89 -104 130 -133 27 -19
29 -20 19 -2 -5 10 -28 40 -51 66 -23 25 -41 54 -41 65 0 25 76 -60 97 -109 8
-21 20 -38 25 -38 17 0 -2 91 -29 142 -31 57 -129 162 -143 153 -6 -4 -7 -11
-4 -17 4 -6 -2 -6 -15 1 -11 7 -21 18 -21 26 0 8 -4 15 -10 15 -5 0 -10 -6
-10 -12z"/>
<path d="M2878 2590 c-2 -6 -14 -12 -28 -14 -38 -4 -110 -28 -110 -36 0 -4 28
-10 63 -13 74 -6 125 -23 110 -38 -6 -6 -31 -2 -72 11 -35 11 -67 20 -72 20
-20 0 58 -63 95 -76 79 -29 253 -13 239 22 -3 10 -8 12 -12 5 -4 -6 -17 -8
-29 -4 -18 4 -20 8 -11 20 15 18 -10 38 -68 52 -23 6 -54 16 -70 22 l-28 11
25 13 25 14 -27 1 c-14 0 -28 -5 -30 -10z"/>
<path d="M2398 1920 c-13 -8 -17 -25 -17 -76 l0 -65 97 0 c53 0 119 0 145 0
55 0 77 13 77 47 0 15 6 24 15 24 10 0 15 -10 15 -34 l0 -34 53 0 c47 0 55 3
85 36 89 99 85 112 -40 112 -64 -1 -99 -5 -112 -15 -16 -12 -20 -12 -33 1 -17
16 -104 19 -133 4 -13 -7 -21 -7 -25 0 -8 13 -105 12 -127 0z m277 -20 c17
-14 20 -63 5 -91 -9 -15 -22 -19 -65 -19 -59 0 -75 14 -75 64 0 42 35 69 82
63 21 -3 45 -11 53 -17z"/>
<path d="M614 1905 c-17 -11 -21 -25 -22 -73 l-1 -59 132 -6 c145 -5 177 2
187 42 9 40 30 38 30 -2 l0 -36 55 0 c54 0 55 1 101 54 67 79 61 90 -56 92
-67 1 -99 -3 -110 -12 -13 -11 -18 -11 -34 1 -23 17 -99 19 -128 3 -14 -8 -23
-8 -31 0 -16 16 -99 13 -123 -4z m261 -7 c21 -9 25 -18 25 -53 0 -47 -10 -60
-55 -67 -47 -8 -78 4 -86 35 -12 44 3 81 37 88 45 10 51 10 79 -3z"/>
<path d="M4132 1903 c-5 -10 -10 -44 -11 -76 l-1 -57 118 -1 c64 0 130 0 147
0 31 1 55 23 55 52 0 9 7 19 15 23 12 4 15 -3 15 -33 l0 -38 54 -1 c52 0 54 0
100 55 66 79 62 87 -52 91 -69 2 -98 -1 -114 -12 -18 -13 -23 -13 -35 0 -17
16 -105 19 -133 4 -13 -7 -21 -7 -25 0 -3 5 -33 10 -65 10 -46 0 -61 -4 -68
-17z m278 -13 c22 -22 26 -60 10 -91 -9 -15 -22 -19 -63 -19 -29 0 -58 5 -65
12 -13 13 -16 76 -4 94 19 29 94 32 122 4z"/>
<path d="M2475 1569 c-116 -26 -203 -75 -290 -163 -77 -78 -120 -153 -147
-257 -25 -100 -21 -231 10 -321 60 -178 219 -326 398 -373 75 -19 213 -19 289
0 176 46 336 196 397 373 32 95 32 268 0 360 -31 88 -93 182 -159 242 -62 57
-190 122 -271 139 -62 13 -170 13 -227 0z m85 -79 c0 -14 57 -13 66 1 12 21
174 -22 174 -46 0 -17 31 -35 61 -35 13 0 43 -21 76 -53 42 -43 53 -61 53 -86
0 -24 6 -34 25 -43 18 -8 29 -26 40 -60 23 -79 28 -115 16 -122 -14 -9 -14
-66 0 -66 23 0 -23 -168 -49 -177 -23 -9 -32 -23 -32 -53 0 -37 -86 -119 -136
-130 -24 -6 -40 -5 -42 0 -4 12 -425 14 -436 3 -4 -5 -22 -8 -39 -8 -43 0
-152 103 -142 135 5 14 -2 27 -24 48 -39 35 -73 151 -53 182 15 24 16 57 2 65
-28 17 9 146 52 185 19 18 28 34 25 44 -11 29 89 135 130 136 32 0 53 10 53
26 0 16 45 41 97 53 53 12 83 13 83 1z"/>
<path d="M2463 1462 c-29 -9 -60 -27 -68 -39 -14 -20 -12 -26 26 -93 32 -55
45 -70 58 -64 49 20 112 24 173 10 34 -8 65 -13 69 -10 4 2 23 32 43 66 33 55
36 64 25 86 -23 42 -121 70 -165 47 -24 -12 -32 -12 -62 1 -41 17 -34 17 -99
-4z"/>
<path d="M2263 1348 c-27 -28 -43 -56 -47 -81 -5 -24 -17 -44 -35 -58 -37 -27
-58 -112 -41 -165 9 -27 9 -42 0 -64 -19 -45 3 -132 41 -162 19 -15 31 -36 35
-60 8 -44 75 -113 119 -121 29 -5 31 -3 112 139 l83 145 -21 29 c-12 15 -19
34 -17 42 3 8 11 1 21 -19 31 -59 113 -65 151 -11 21 29 20 45 -1 51 -17 4
-17 5 0 6 24 1 21 28 -8 56 -17 18 -35 25 -64 25 -34 0 -44 -6 -70 -37 -34
-41 -45 -23 -12 19 l20 24 -35 62 c-19 34 -39 62 -43 62 -19 0 -83 -78 -100
-124 -11 -28 -20 -42 -20 -32 -1 34 39 105 80 140 l39 33 -41 72 c-38 64 -45
71 -73 71 -24 0 -42 -10 -73 -42z"/>
<path d="M2813 1378 c-5 -7 -25 -40 -43 -72 l-33 -59 25 -19 c40 -28 85 -107
95 -163 17 -95 -27 -218 -94 -262 -13 -9 -23 -19 -23 -23 0 -5 18 -39 40 -77
38 -67 41 -69 72 -65 21 3 48 20 76 47 34 34 42 49 42 79 0 20 4 36 9 36 4 0
20 11 34 24 35 32 53 121 33 160 -14 28 -12 49 6 73 12 15 -10 120 -28 137 -6
6 -21 18 -33 26 -14 10 -21 25 -21 47 0 26 -10 42 -46 78 -48 46 -91 59 -111
33z"/>
<path d="M2517 1263 c-41 -6 -43 -26 -6 -87 32 -54 35 -56 76 -56 24 0 46 0
50 -1 5 -1 73 116 73 126 0 2 -14 8 -31 14 -31 11 -105 12 -162 4z"/>
<path d="M2683 1155 c-28 -43 -28 -45 -2 -90 24 -40 21 -85 -8 -117 -16 -17
-15 -21 5 -63 12 -25 29 -45 37 -45 21 0 73 75 86 123 11 43 4 107 -17 149
-15 29 -60 78 -72 78 -4 0 -17 -16 -29 -35z"/>
<path d="M2511 850 c-17 -32 -31 -60 -31 -63 0 -11 60 -28 106 -31 40 -2 106
14 123 29 2 2 -13 31 -33 64 l-37 60 -48 -1 -49 0 -31 -58z"/>
<path d="M2431 710 l-32 -60 196 0 196 0 -27 48 c-43 74 -40 72 -86 56 -52
-18 -114 -18 -168 1 -23 8 -44 15 -45 15 -1 0 -17 -27 -34 -60z"/>
<path d="M535 1375 c-44 -7 -97 -19 -117 -28 -45 -19 -44 -4 -27 -302 10 -168
15 -203 30 -220 10 -12 20 -45 25 -83 5 -51 12 -67 38 -93 17 -17 44 -37 59
-45 81 -43 307 -56 492 -29 114 16 274 66 287 89 5 9 18 16 28 16 11 0 20 5
20 11 0 5 -4 8 -9 5 -12 -8 -71 23 -71 38 0 10 -90 42 -98 34 -2 -2 -8 5 -14
15 -8 15 -4 25 21 50 22 21 28 33 20 38 -16 10 -39 0 -39 -17 0 -8 -6 -11 -15
-8 -11 4 -13 2 -9 -9 8 -22 -42 -37 -78 -23 -16 6 -28 17 -28 25 0 8 -3 11 -7
7 -4 -3 -15 21 -25 54 -13 40 -24 60 -34 60 -12 0 -15 6 -10 25 4 17 -1 37
-19 66 -15 22 -30 59 -34 82 -6 34 -11 41 -26 39 -12 -2 -16 0 -9 5 7 4 11 24
10 43 -1 39 -18 34 179 59 45 5 94 15 110 21 l30 12 -26 14 c-15 7 -81 21
-147 29 -66 9 -135 20 -153 25 -47 14 -257 11 -354 -5z"/>
<path d="M615 363 c-38 -9 -45 -24 -45 -89 l0 -63 143 0 c79 1 149 4 156 8 6
4 15 21 20 37 10 38 25 33 29 -9 3 -34 3 -34 55 -35 51 0 53 1 97 54 25 30 46
64 48 74 3 19 -3 20 -100 20 -66 0 -108 -4 -116 -12 -8 -8 -15 -8 -26 1 -15
13 -37 14 -146 10 -30 -1 -64 0 -75 3 -11 3 -29 3 -40 1z m244 -22 c9 -6 14
-27 14 -56 0 -54 -11 -65 -66 -65 -59 0 -77 14 -77 60 0 22 7 45 16 54 17 17
90 22 113 7z"/>
<path d="M2374 349 c-31 -11 -38 -27 -40 -86 -1 -41 2 -53 15 -57 9 -3 76 -5
148 -5 124 1 134 2 148 22 8 12 15 29 15 39 0 34 19 18 22 -19 l3 -38 82 -3
c71 -2 85 0 102 17 15 15 18 28 14 63 -3 23 -11 49 -17 56 -17 18 -171 18
-193 0 -9 -7 -17 -7 -28 2 -13 11 -56 13 -145 8 -14 -1 -43 1 -65 4 -22 3 -50
2 -61 -3z m256 -24 c16 -19 15 -82 -1 -101 -13 -16 -82 -19 -110 -4 -14 8 -19
21 -19 53 0 24 5 48 12 55 18 18 103 15 118 -3z m227 3 c13 -17 14 -90 1 -105
-13 -16 -82 -17 -109 -3 -16 9 -18 19 -15 57 3 25 11 50 18 54 20 13 94 10
105 -3z"/>
</g>
</svg>
